# xmcd CD database file
#
# Track frame offsets:
#	150
#	21199
#	42079
#	58994
#	76167
#	89982
#	106167
#	124529
#	144544
#	160595
#	183687
#
# Disc length: 2669 seconds
#
# Revision: 0
# Processed by: cddbd v1.5.2PL0 Copyright (c) Steve Scherf et al.
# Submitted via: CDex 1.51
#
DISCID=900a6b0b
DTITLE=Reba McEntire - Reba Duets
DYEAR=2007
DGENRE=Country
TTITLE0=When You Love Someone Like That w - LeAnn Rimes
TTITLE1=Does The Wind Still Blow In Oklahoma? w - Ronnie Dunn
TTITLE2=Because Of You w- Kelly Clarkson
TTITLE3=Faith In Love w- Rascal Flatts
TTITLE4=She Can't Save Him w-Trisha Yearwood
TTITLE5=Everyday People w - Carole King
TTITLE6=Every Other Weekend w - Kenny Chesney
TTITLE7=These Broken Hearts w - Vince Gill
TTITLE8=Sleeping With The Telephone w - Faith Hill
TTITLE9=The Only Promise That Remains w - Justin Timberlake
TTITLE10=Break Each Other's Hearts Again w -  Don Henley
EXTD=YEAR: 2007
EXTT0=
EXTT1=
EXTT2=
EXTT3=
EXTT4=
EXTT5=
EXTT6=
EXTT7=
EXTT8=
EXTT9=
EXTT10=
PLAYORDER=
